<svg xmlns="http://www.w3.org/2000/svg" viewBox="-30 143 14706 1702" fill="#FFFFFF"><path d="M212 1773Q106 1773 53.0 1730.5Q0 1688 0 1627Q0 1582 31.5 1563.5Q63 1545 94 1545Q111 1545 127.5 1555.0Q144 1565 144 1590Q144 1609 127.5 1624.0Q111 1639 88 1639Q75 1639 62.5 1637.5Q50 1636 40 1629V1636Q40 1684 81.5 1715.0Q123 1746 220 1746Q287 1746 357.0 1717.0Q427 1688 503 1636Q540 1609 576.5 1580.0Q613 1551 652 1519Q507 1465 424.5 1368.5Q342 1272 337 1166Q334 1096 367.0 1035.5Q400 975 467.0 937.0Q534 899 631 899Q766 899 869.0 978.5Q972 1058 1027 1175L1054 1148Q1239 963 1375.0 838.0Q1511 713 1609.0 633.5Q1707 554 1778.5 507.0Q1850 460 1905 431Q1979 392 2027.0 378.0Q2075 364 2100 364Q2118 364 2118 373Q2118 377 2098 385Q2083 390 2055.0 419.0Q2027 448 1973.0 517.5Q1919 587 1825.5 711.5Q1732 836 1587.5 1029.5Q1443 1223 1232 1501Q1414 1447 1551.0 1330.0Q1688 1213 1746 1059Q1758 1029 1762 1029Q1765 1029 1771.5 1037.5Q1778 1046 1778 1058Q1772 1144 1729.0 1209.5Q1686 1275 1626 1334Q1546 1412 1435.0 1464.5Q1324 1517 1200 1543L1029 1769Q998 1767 965.5 1765.0Q933 1763 913 1763Q896 1763 882.5 1765.0Q869 1767 855 1769Q893 1721 930.0 1675.5Q967 1630 1003 1586Q1011 1574 1014 1567Q998 1568 982.5 1568.5Q967 1569 951 1569Q878 1569 811.5 1559.0Q745 1549 687 1531Q616 1591 562.5 1631.0Q509 1671 470 1695Q406 1735 342.0 1754.0Q278 1773 212 1773ZM1070 1504Q1352 1158 1544.5 933.0Q1737 708 1854.0 580.5Q1971 453 2026 402Q1994 415 1959.5 430.0Q1925 445 1877 474Q1796 523 1689.5 609.5Q1583 696 1439.5 827.0Q1296 958 1105 1144L1041 1206Q1061 1256 1071.5 1309.0Q1082 1362 1082 1415Q1082 1460 1070 1504ZM676 1499Q745 1440 824.5 1366.5Q904 1293 1004 1196Q953 1077 854.5 1003.0Q756 929 633 929Q569 929 515.5 962.0Q462 995 430.5 1048.5Q399 1102 399 1164Q399 1268 468.0 1359.0Q537 1450 676 1499ZM957 1541Q993 1541 1027 1538Q1039 1507 1044.5 1475.0Q1050 1443 1050 1421Q1050 1322 1017 1229Q926 1317 849.5 1386.5Q773 1456 711 1510Q820 1541 957 1541Z M1668 1770Q1626 1770 1598.5 1746.5Q1571 1723 1571 1689Q1571 1662 1577.5 1636.5Q1584 1611 1606.5 1570.5Q1629 1530 1675.0 1461.0Q1721 1392 1800 1278L2573 173Q2587 174 2608.5 176.0Q2630 178 2670 177Q2678 177 2688.5 175.5Q2699 174 2712 173L1890 1314Q1800 1440 1749.0 1513.5Q1698 1587 1674.0 1625.5Q1650 1664 1644.0 1680.5Q1638 1697 1638 1709Q1638 1742 1685 1742Q1744 1742 1809.5 1707.0Q1875 1672 1939.0 1619.5Q2003 1567 2057.0 1512.0Q2111 1457 2148.5 1415.0Q2186 1373 2198 1362L2218 1379Q2205 1392 2166.0 1435.0Q2127 1478 2070.0 1534.5Q2013 1591 1945.5 1645.0Q1878 1699 1806.5 1734.5Q1735 1770 1668 1770Z M2269 1774Q2171 1774 2129.0 1723.0Q2087 1672 2085 1598Q2084 1544 2107.0 1478.0Q2130 1412 2155 1377Q2229 1274 2315.0 1209.0Q2401 1144 2483.5 1113.5Q2566 1083 2629 1083Q2690 1083 2714.5 1103.0Q2739 1123 2740 1149Q2743 1188 2698.5 1239.5Q2654 1291 2543.0 1351.0Q2432 1411 2233 1477Q2198 1533 2186.0 1573.5Q2174 1614 2174 1646Q2174 1693 2205.5 1719.0Q2237 1745 2280 1745Q2374 1745 2456.5 1709.5Q2539 1674 2607.5 1620.0Q2676 1566 2728.0 1510.5Q2780 1455 2813.0 1413.5Q2846 1372 2857 1362L2878 1379Q2863 1392 2827.5 1436.0Q2792 1480 2737.5 1537.0Q2683 1594 2612.0 1648.0Q2541 1702 2454.5 1738.0Q2368 1774 2269 1774ZM2256 1442Q2450 1374 2562.0 1301.5Q2674 1229 2674 1163Q2674 1107 2622 1107Q2555 1107 2477.0 1179.0Q2399 1251 2295 1388Q2273 1416 2256 1442Z M2742 1770Q2694 1770 2675.5 1756.0Q2657 1742 2657 1717Q2657 1700 2675.0 1685.0Q2693 1670 2718 1670Q2737 1670 2759 1685Q2782 1702 2799 1702Q2894 1702 3003.5 1600.5Q3113 1499 3200 1333Q3244 1269 3255.5 1233.0Q3267 1197 3267 1166Q3267 1114 3220 1114Q3187 1114 3146.5 1131.5Q3106 1149 3043.5 1205.5Q2981 1262 2878 1379Q2870 1381 2860 1372Q2855 1367 2857 1362Q2966 1240 3032.5 1180.5Q3099 1121 3143.5 1102.0Q3188 1083 3231 1083Q3288 1083 3321.0 1119.0Q3354 1155 3354 1220Q3354 1254 3336 1316Q3382 1255 3439.5 1202.0Q3497 1149 3559.0 1116.0Q3621 1083 3679 1083Q3732 1083 3752.0 1107.5Q3772 1132 3772 1155Q3772 1186 3753.0 1200.5Q3734 1215 3715 1215Q3647 1215 3642 1133Q3635 1132 3625 1132Q3583 1132 3523.0 1173.0Q3463 1214 3399.5 1286.0Q3336 1358 3283 1450Q3276 1466 3267.0 1481.5Q3258 1497 3249 1514Q3220 1576 3209.5 1616.0Q3199 1656 3199 1686Q3199 1717 3218.0 1729.5Q3237 1742 3265 1742Q3326 1742 3393.0 1705.0Q3460 1668 3524.0 1612.5Q3588 1557 3641.0 1501.0Q3694 1445 3726.5 1405.0Q3759 1365 3763 1361L3784 1379Q3779 1383 3744.0 1424.0Q3709 1465 3653.5 1522.5Q3598 1580 3529.5 1637.0Q3461 1694 3389.5 1732.0Q3318 1770 3252 1770Q3197 1770 3152.5 1735.5Q3108 1701 3108 1619Q3108 1576 3132 1500Q3032 1638 2921.0 1704.0Q2810 1770 2742 1770Z M3754 1770Q3690 1770 3660.5 1735.0Q3631 1700 3631 1639Q3631 1572 3659.5 1496.0Q3688 1420 3754 1345Q3889 1188 4006.5 1135.5Q4124 1083 4227 1083Q4279 1083 4315.0 1105.0Q4351 1127 4351 1165Q4351 1194 4339 1224Q4371 1186 4393.5 1157.5Q4416 1129 4437 1103Q4463 1111 4497 1111Q4511 1111 4535.0 1110.0Q4559 1109 4572 1107L4235 1513Q4171 1589 4143.0 1636.5Q4115 1684 4115 1710Q4115 1742 4146 1742Q4200 1742 4258.0 1710.5Q4316 1679 4372.0 1629.5Q4428 1580 4477.0 1526.5Q4526 1473 4563.5 1427.5Q4601 1382 4621 1360L4641 1377Q4619 1402 4579.0 1449.0Q4539 1496 4487.5 1551.0Q4436 1606 4376.5 1656.0Q4317 1706 4254.5 1738.0Q4192 1770 4131 1770Q4031 1770 4031 1708Q4031 1685 4039.5 1661.5Q4048 1638 4074.0 1600.5Q4100 1563 4152 1500L4142 1496Q4020 1646 3916.5 1708.0Q3813 1770 3754 1770ZM3758 1740Q3822 1740 3927.0 1665.5Q4032 1591 4179 1417Q4203 1388 4223.5 1363.0Q4244 1338 4263 1316Q4286 1281 4304.5 1243.0Q4323 1205 4323 1174Q4323 1143 4301.0 1128.5Q4279 1114 4253 1114Q4204 1114 4094.5 1184.5Q3985 1255 3854 1410Q3779 1500 3746.0 1570.0Q3713 1640 3713 1688Q3713 1740 3758 1740Z M5164 1770Q5109 1770 5068.5 1749.0Q5028 1728 5028 1693Q5028 1666 5040.0 1629.5Q5052 1593 5097.5 1529.0Q5143 1465 5241 1355Q5320 1266 5350.0 1217.0Q5380 1168 5380 1144Q5380 1130 5370.0 1119.0Q5360 1108 5332 1108Q5312 1108 5278.5 1121.0Q5245 1134 5199 1165Q5120 1219 5005.0 1331.5Q4890 1444 4741 1627L4648 1749Q4622 1744 4590 1744Q4554 1744 4530.5 1747.5Q4507 1751 4495 1754Q4607 1592 4682.0 1485.5Q4757 1379 4802.5 1315.0Q4848 1251 4870.5 1217.5Q4893 1184 4901.0 1169.5Q4909 1155 4910 1146Q4912 1117 4888 1117Q4874 1117 4844.0 1145.0Q4814 1173 4776.5 1215.0Q4739 1257 4703.0 1301.5Q4667 1346 4640 1379Q4633 1383 4622 1374Q4616 1365 4619 1362Q4648 1331 4684.5 1284.5Q4721 1238 4761.0 1191.5Q4801 1145 4843.0 1114.0Q4885 1083 4924 1083Q4953 1083 4981.5 1095.5Q5010 1108 5005 1155Q5004 1171 4995.0 1195.5Q4986 1220 4959 1258L4749 1550L4754 1561Q4910 1385 5014.5 1284.5Q5119 1184 5191 1136Q5239 1104 5275.5 1093.5Q5312 1083 5343 1083Q5408 1083 5434.5 1114.5Q5461 1146 5460 1184Q5459 1224 5433.5 1279.5Q5408 1335 5346.5 1417.5Q5285 1500 5174 1621Q5123 1675 5112.5 1690.5Q5102 1706 5102 1719Q5102 1729 5122.5 1735.5Q5143 1742 5174 1742Q5235 1742 5299.0 1707.0Q5363 1672 5423.5 1619.5Q5484 1567 5534.0 1512.0Q5584 1457 5617.5 1415.0Q5651 1373 5661 1362L5682 1379Q5670 1392 5635.5 1435.0Q5601 1478 5549.0 1534.5Q5497 1591 5434.0 1645.0Q5371 1699 5302.0 1734.5Q5233 1770 5164 1770Z M5677 1770Q5614 1770 5582.0 1735.0Q5550 1700 5550 1639Q5550 1572 5579.5 1496.0Q5609 1420 5675 1345Q5810 1188 5931.0 1135.5Q6052 1083 6150 1083Q6191 1083 6231.5 1103.5Q6272 1124 6272 1165Q6272 1169 6271.5 1173.0Q6271 1177 6271 1182Q6351 1066 6460.0 908.5Q6569 751 6700.5 564.0Q6832 377 6977 173Q6991 179 7013.0 184.0Q7035 189 7061 189Q7079 189 7104 186L6154 1518Q6096 1595 6066.5 1641.0Q6037 1687 6037 1713Q6037 1740 6062 1740Q6128 1740 6195.0 1705.5Q6262 1671 6323.0 1618.5Q6384 1566 6434.5 1511.0Q6485 1456 6519.0 1414.5Q6553 1373 6564 1362L6586 1379Q6573 1392 6536.5 1435.0Q6500 1478 6445.5 1534.5Q6391 1591 6325.5 1645.0Q6260 1699 6188.5 1734.5Q6117 1770 6046 1770Q5997 1770 5976.0 1751.0Q5955 1732 5955 1702Q5956 1642 6075 1500L6067 1496Q5931 1647 5834.5 1708.5Q5738 1770 5677 1770ZM5684 1740Q5724 1740 5782.0 1709.0Q5840 1678 5932 1595Q5971 1558 6014.0 1515.0Q6057 1472 6103 1417Q6117 1400 6146.5 1358.5Q6176 1317 6219 1255Q6242 1207 6242 1174Q6242 1143 6218.0 1128.5Q6194 1114 6166 1114Q6117 1114 6012.5 1185.5Q5908 1257 5777 1412Q5702 1503 5668.0 1571.5Q5634 1640 5634 1688Q5634 1740 5684 1740Z M6638 1774Q6540 1774 6498.0 1723.0Q6456 1672 6454 1598Q6453 1544 6476.0 1478.0Q6499 1412 6524 1377Q6598 1274 6684.0 1209.0Q6770 1144 6852.5 1113.5Q6935 1083 6998 1083Q7059 1083 7083.5 1103.0Q7108 1123 7109 1149Q7112 1188 7067.5 1239.5Q7023 1291 6912.0 1351.0Q6801 1411 6602 1477Q6567 1533 6555.0 1573.5Q6543 1614 6543 1646Q6543 1693 6574.5 1719.0Q6606 1745 6649 1745Q6743 1745 6825.5 1709.5Q6908 1674 6976.5 1620.0Q7045 1566 7097.0 1510.5Q7149 1455 7182.0 1413.5Q7215 1372 7226 1362L7247 1379Q7232 1392 7196.5 1436.0Q7161 1480 7106.5 1537.0Q7052 1594 6981.0 1648.0Q6910 1702 6823.5 1738.0Q6737 1774 6638 1774ZM6625 1442Q6819 1374 6931.0 1301.5Q7043 1229 7043 1163Q7043 1107 6991 1107Q6924 1107 6846.0 1179.0Q6768 1251 6664 1388Q6642 1416 6625 1442Z M7386 1770Q7330 1770 7295.0 1741.5Q7260 1713 7260 1667Q7260 1587 7377.0 1474.0Q7494 1361 7694 1227Q7592 1210 7518.5 1193.0Q7445 1176 7401 1156Q7381 1196 7343.0 1254.0Q7305 1312 7246 1379Q7206 1426 7186.0 1445.0Q7166 1464 7158.5 1467.5Q7151 1471 7150 1473Q7147 1474 7146.5 1467.0Q7146 1460 7147 1456Q7147 1452 7162.0 1437.0Q7177 1422 7225 1362Q7275 1299 7314.0 1242.0Q7353 1185 7374 1142Q7338 1119 7332 1091Q7324 1043 7351.0 1004.0Q7378 965 7421 965Q7474 965 7474 1011Q7474 1034 7465.0 1050.0Q7456 1066 7447 1081Q7429 1102 7429 1134Q7429 1144 7463.5 1155.5Q7498 1167 7548.5 1177.5Q7599 1188 7648.0 1195.5Q7697 1203 7725 1205Q7744 1206 7748.5 1211.5Q7753 1217 7753 1220Q7753 1230 7724 1253Q7669 1295 7611.0 1354.5Q7553 1414 7503.0 1477.5Q7453 1541 7422.0 1597.0Q7391 1653 7391 1689Q7391 1736 7429 1736Q7478 1736 7536.0 1703.0Q7594 1670 7653.5 1620.0Q7713 1570 7765.5 1516.5Q7818 1463 7856.0 1420.5Q7894 1378 7909 1362L7929 1379Q7907 1400 7866.5 1445.5Q7826 1491 7772.0 1546.5Q7718 1602 7654.5 1653.0Q7591 1704 7523.0 1737.0Q7455 1770 7386 1770Z M9386 1815Q9256 1815 9130.5 1769.0Q9005 1723 8882 1678Q8797 1725 8716.0 1747.5Q8635 1770 8558 1770Q8449 1770 8393.5 1742.0Q8338 1714 8339 1677Q8341 1636 8406.5 1603.5Q8472 1571 8596 1571Q8662 1571 8731.0 1583.0Q8800 1595 8868 1612Q8954 1538 9051.5 1423.0Q9149 1308 9265 1149Q9404 958 9557.0 790.0Q9710 622 9923 469Q9870 495 9805.5 510.5Q9741 526 9676 526Q9594 526 9532.0 512.0Q9470 498 9413.5 480.0Q9357 462 9290.5 450.0Q9224 438 9133 441Q9071 443 9008.5 474.0Q8946 505 8894.0 556.0Q8842 607 8809.5 669.5Q8777 732 8774 798Q8773 842 8802.0 880.5Q8831 919 8883 919Q8948 919 9007.0 876.5Q9066 834 9113.0 771.5Q9160 709 9189.0 646.5Q9218 584 9222 544Q9223 529 9233 529Q9236 529 9243.5 542.0Q9251 555 9252 573Q9258 646 9229.0 713.0Q9200 780 9147.0 831.5Q9094 883 9028.0 913.0Q8962 943 8894 943Q8843 943 8810.0 919.0Q8777 895 8762.0 860.5Q8747 826 8748 796Q8751 718 8791.5 641.5Q8832 565 8902.5 503.0Q8973 441 9065.0 404.0Q9157 367 9263 367Q9360 367 9431.0 382.0Q9502 397 9561.0 417.0Q9620 437 9680.5 452.0Q9741 467 9817 467Q9880 467 9940.0 440.0Q10000 413 10037 379Q10051 366 10060.5 362.5Q10070 359 10077 359Q10090 359 10090 369Q10090 380 10072 394Q10051 405 10040.0 412.5Q10029 420 10007 433Q9971 458 9916.0 513.5Q9861 569 9795.5 645.0Q9730 721 9663.5 809.0Q9597 897 9538 986Q9381 1225 9235.0 1384.5Q9089 1544 8952 1635Q9049 1663 9140.5 1688.0Q9232 1713 9312 1719Q9447 1729 9555.0 1707.0Q9663 1685 9726.5 1627.5Q9790 1570 9790 1476Q9790 1429 9761.5 1387.5Q9733 1346 9671 1333Q9670 1355 9652.5 1370.5Q9635 1386 9613 1391Q9591 1394 9571.0 1386.5Q9551 1379 9545 1360Q9538 1337 9556.0 1321.0Q9574 1305 9589 1301Q9606 1296 9620 1296Q9706 1296 9762.5 1347.0Q9819 1398 9819 1475Q9819 1582 9761.0 1658.0Q9703 1734 9605.0 1774.5Q9507 1815 9386 1815ZM8561 1746Q8690 1746 8816 1654Q8753 1633 8691.0 1619.0Q8629 1605 8567 1605Q8523 1605 8478.0 1612.5Q8433 1620 8402.0 1636.0Q8371 1652 8370 1678Q8369 1701 8412.5 1723.5Q8456 1746 8561 1746Z M9997 1770Q9933 1770 9903.5 1735.0Q9874 1700 9874 1639Q9874 1572 9902.5 1496.0Q9931 1420 9997 1345Q10132 1188 10249.5 1135.5Q10367 1083 10470 1083Q10522 1083 10558.0 1105.0Q10594 1127 10594 1165Q10594 1194 10582 1224Q10614 1186 10636.5 1157.5Q10659 1129 10680 1103Q10706 1111 10740 1111Q10754 1111 10778.0 1110.0Q10802 1109 10815 1107L10478 1513Q10414 1589 10386.0 1636.5Q10358 1684 10358 1710Q10358 1742 10389 1742Q10443 1742 10501.0 1710.5Q10559 1679 10615.0 1629.5Q10671 1580 10720.0 1526.5Q10769 1473 10806.5 1427.5Q10844 1382 10864 1360L10884 1377Q10862 1402 10822.0 1449.0Q10782 1496 10730.5 1551.0Q10679 1606 10619.5 1656.0Q10560 1706 10497.5 1738.0Q10435 1770 10374 1770Q10274 1770 10274 1708Q10274 1685 10282.5 1661.5Q10291 1638 10317.0 1600.5Q10343 1563 10395 1500L10385 1496Q10263 1646 10159.5 1708.0Q10056 1770 9997 1770ZM10001 1740Q10065 1740 10170.0 1665.5Q10275 1591 10422 1417Q10446 1388 10466.5 1363.0Q10487 1338 10506 1316Q10529 1281 10547.5 1243.0Q10566 1205 10566 1174Q10566 1143 10544.0 1128.5Q10522 1114 10496 1114Q10447 1114 10337.5 1184.5Q10228 1255 10097 1410Q10022 1500 9989.0 1570.0Q9956 1640 9956 1688Q9956 1740 10001 1740Z M11022 1770Q10966 1770 10931.0 1741.5Q10896 1713 10896 1667Q10896 1587 11013.0 1474.0Q11130 1361 11330 1227Q11228 1210 11154.5 1193.0Q11081 1176 11037 1156Q11017 1196 10979.0 1254.0Q10941 1312 10882 1379Q10842 1426 10822.0 1445.0Q10802 1464 10794.5 1467.5Q10787 1471 10786 1473Q10783 1474 10782.5 1467.0Q10782 1460 10783 1456Q10783 1452 10798.0 1437.0Q10813 1422 10861 1362Q10911 1299 10950.0 1242.0Q10989 1185 11010 1142Q10974 1119 10968 1091Q10960 1043 10987.0 1004.0Q11014 965 11057 965Q11110 965 11110 1011Q11110 1034 11101.0 1050.0Q11092 1066 11083 1081Q11065 1102 11065 1134Q11065 1144 11099.5 1155.5Q11134 1167 11184.5 1177.5Q11235 1188 11284.0 1195.5Q11333 1203 11361 1205Q11380 1206 11384.5 1211.5Q11389 1217 11389 1220Q11389 1230 11360 1253Q11305 1295 11247.0 1354.5Q11189 1414 11139.0 1477.5Q11089 1541 11058.0 1597.0Q11027 1653 11027 1689Q11027 1736 11065 1736Q11114 1736 11172.0 1703.0Q11230 1670 11289.5 1620.0Q11349 1570 11401.5 1516.5Q11454 1463 11492.0 1420.5Q11530 1378 11545 1362L11565 1379Q11543 1400 11502.5 1445.5Q11462 1491 11408.0 1546.5Q11354 1602 11290.5 1653.0Q11227 1704 11159.0 1737.0Q11091 1770 11022 1770Z M11617 1774Q11519 1774 11477.0 1723.0Q11435 1672 11433 1598Q11432 1544 11455.0 1478.0Q11478 1412 11503 1377Q11577 1274 11663.0 1209.0Q11749 1144 11831.5 1113.5Q11914 1083 11977 1083Q12038 1083 12062.5 1103.0Q12087 1123 12088 1149Q12091 1188 12046.5 1239.5Q12002 1291 11891.0 1351.0Q11780 1411 11581 1477Q11546 1533 11534.0 1573.5Q11522 1614 11522 1646Q11522 1693 11553.5 1719.0Q11585 1745 11628 1745Q11722 1745 11804.5 1709.5Q11887 1674 11955.5 1620.0Q12024 1566 12076.0 1510.5Q12128 1455 12161.0 1413.5Q12194 1372 12205 1362L12226 1379Q12211 1392 12175.5 1436.0Q12140 1480 12085.5 1537.0Q12031 1594 11960.0 1648.0Q11889 1702 11802.5 1738.0Q11716 1774 11617 1774ZM11604 1442Q11798 1374 11910.0 1301.5Q12022 1229 12022 1163Q12022 1107 11970 1107Q11903 1107 11825.0 1179.0Q11747 1251 11643 1388Q11621 1416 11604 1442Z M12135 1770Q12080 1770 12052.5 1748.0Q12025 1726 12025 1692Q12025 1665 12032.0 1638.5Q12039 1612 12062.0 1571.0Q12085 1530 12132.0 1460.5Q12179 1391 12259 1278L12517 915H12438Q12408 915 12408 902Q12408 886 12446 886H12537L12722 626Q12735 628 12756.5 629.5Q12778 631 12818 630Q12838 630 12861 626L12668 886H12926Q12954 886 12954 900Q12954 915 12929 915H12646L12382 1271Q12288 1397 12231.0 1478.0Q12174 1559 12144.5 1606.0Q12115 1653 12104.5 1676.0Q12094 1699 12094 1710Q12094 1740 12144 1742Q12213 1741 12286.5 1696.5Q12360 1652 12428.0 1587.5Q12496 1523 12550.0 1460.5Q12604 1398 12634 1362L12656 1379Q12627 1413 12571.0 1477.0Q12515 1541 12442.5 1608.5Q12370 1676 12291.0 1723.0Q12212 1770 12135 1770Z M12578 1791Q12547 1791 12498.0 1783.0Q12449 1775 12410.5 1749.0Q12372 1723 12372 1668Q12372 1618 12402.5 1585.5Q12433 1553 12470.0 1537.0Q12507 1521 12525 1521Q12566 1521 12566 1559Q12565 1575 12543.5 1588.5Q12522 1602 12496 1602Q12484 1602 12472.5 1593.5Q12461 1585 12454 1581Q12443 1592 12420.5 1613.5Q12398 1635 12398 1669Q12398 1707 12428.5 1725.5Q12459 1744 12497.0 1749.5Q12535 1755 12555 1755Q12597 1755 12660.0 1721.5Q12723 1688 12777.5 1609.0Q12832 1530 12848 1394Q12853 1346 12857.5 1261.0Q12862 1176 12889 1098Q12890 1095 12890 1089Q12852 1136 12808.0 1190.0Q12764 1244 12723.5 1294.0Q12683 1344 12654 1379Q12634 1403 12625.0 1410.0Q12616 1417 12617 1417Q12616 1417 12609.5 1417.5Q12603 1418 12599 1411Q12597 1406 12608.5 1392.0Q12620 1378 12633 1362Q12656 1336 12704.0 1279.0Q12752 1222 12805.5 1157.0Q12859 1092 12898 1042Q12904 1012 12916.0 988.0Q12928 964 12950 964Q12990 964 12990 997Q12989 1016 12944 1068Q12917 1100 12915.0 1109.5Q12913 1119 12913 1134Q12912 1170 12920.5 1223.5Q12929 1277 12939.0 1335.5Q12949 1394 12952 1447Q12955 1526 12934 1584Q12950 1586 12961 1586Q12993 1586 13034.5 1557.0Q13076 1528 13117.0 1488.0Q13158 1448 13188.5 1412.0Q13219 1376 13229 1362L13251 1379Q13234 1397 13201.0 1434.5Q13168 1472 13126.0 1512.5Q13084 1553 13040.5 1581.5Q12997 1610 12958 1610Q12949 1610 12941.0 1609.5Q12933 1609 12925 1608Q12878 1712 12786.0 1751.5Q12694 1791 12578 1791Z M12955 1754 14062 173Q14074 174 14096.0 176.0Q14118 178 14158 177Q14166 177 14176.5 175.5Q14187 174 14200 173L13506 1138Q13367 1331 13266.0 1478.0Q13165 1625 13084 1749Q13061 1744 13026 1744Q13013 1744 12989.5 1747.5Q12966 1751 12955 1754ZM13582 1770Q13527 1770 13504.5 1737.5Q13482 1705 13482 1663Q13482 1625 13507.0 1575.0Q13532 1525 13604 1455Q13633 1425 13643.0 1410.0Q13653 1395 13653 1384Q13653 1346 13594 1326Q13554 1348 13521.5 1353.5Q13489 1359 13472 1359Q13444 1359 13429.5 1349.5Q13415 1340 13415 1328Q13415 1310 13443.5 1296.0Q13472 1282 13511 1282Q13555 1282 13593 1293Q13616 1282 13632.5 1267.5Q13649 1253 13676 1223Q13712 1182 13752.0 1135.5Q13792 1089 13841.0 1056.5Q13890 1024 13950 1024Q13998 1024 14027.5 1049.0Q14057 1074 14056 1107Q14055 1144 14034.0 1160.0Q14013 1176 13985 1176Q13963 1176 13944.5 1159.0Q13926 1142 13928 1116Q13929 1097 13940.5 1084.0Q13952 1071 13968 1066Q13953 1054 13929 1054Q13884 1054 13834.5 1092.0Q13785 1130 13703 1234Q13684 1257 13664.5 1274.5Q13645 1292 13626 1306Q13721 1350 13721 1436Q13721 1476 13698.5 1524.5Q13676 1573 13584 1656Q13568 1672 13557.0 1686.0Q13546 1700 13546 1711Q13546 1725 13556.0 1733.5Q13566 1742 13593 1742Q13655 1742 13722.0 1705.0Q13789 1668 13853.0 1612.5Q13917 1557 13970.0 1501.0Q14023 1445 14055.5 1405.0Q14088 1365 14092 1361L14112 1379Q14107 1383 14072.0 1424.0Q14037 1465 13981.5 1522.5Q13926 1580 13858.5 1637.0Q13791 1694 13719.5 1732.0Q13648 1770 13582 1770Z M14546 892Q14518 892 14501.5 874.5Q14485 857 14485 830Q14485 795 14514.5 765.5Q14544 736 14585 736Q14613 736 14629.5 754.5Q14646 773 14646 799Q14646 836 14614.5 864.0Q14583 892 14546 892ZM14035 1770Q13974 1770 13936.5 1747.5Q13899 1725 13899 1687Q13899 1657 13914.0 1617.5Q13929 1578 13971.5 1514.0Q14014 1450 14095.5 1347.5Q14177 1245 14310 1090Q14319 1091 14353.0 1092.0Q14387 1093 14406 1093Q14423 1093 14431.5 1092.5Q14440 1092 14448 1091Q14302 1263 14209.5 1374.0Q14117 1485 14067.0 1551.0Q14017 1617 13998.0 1652.0Q13979 1687 13979 1708Q13979 1734 14007.0 1738.0Q14035 1742 14052 1742Q14106 1742 14170.0 1705.5Q14234 1669 14297.5 1614.5Q14361 1560 14415.5 1504.0Q14470 1448 14505.0 1407.5Q14540 1367 14546 1361L14566 1379Q14555 1391 14518.0 1434.0Q14481 1477 14426.0 1533.5Q14371 1590 14305.5 1644.0Q14240 1698 14170.5 1734.0Q14101 1770 14035 1770Z"/></svg>