<svg xmlns="http://www.w3.org/2000/svg" viewBox="-12 45 5944 1048" fill="#FFFFFF"><path d="M545 915Q501 915 483.0 880.5Q465 846 465 800Q465 759 476.5 719.0Q488 679 504 658Q477 690 437.0 731.0Q397 772 349.0 810.0Q301 848 250.0 873.0Q199 898 149 898Q83 898 50.5 856.0Q18 814 18 741Q18 684 37.5 618.5Q57 553 95 485Q113 452 135.5 419.5Q158 387 184 358Q153 343 124.0 324.5Q95 306 77.0 280.0Q59 254 59 218Q59 199 67.5 183.5Q76 168 86 168Q95 168 95 179Q95 186 91 194Q86 207 86 218Q86 245 105.0 268.5Q124 292 151.0 309.0Q178 326 201 336Q265 266 341.5 206.5Q418 147 506.0 111.0Q594 75 691 75Q772 75 818.0 110.5Q864 146 864 202Q864 252 835.5 287.5Q807 323 761.0 346.5Q715 370 661.5 383.5Q608 397 556.0 402.5Q504 408 465 408Q408 408 354.5 401.0Q301 394 248 379Q222 416 191.5 464.5Q161 513 133.5 566.5Q106 620 88.5 672.5Q71 725 71 770Q71 819 94.0 843.5Q117 868 156 868Q203 868 255.5 839.5Q308 811 361.0 765.0Q414 719 462.0 665.0Q510 611 548.0 558.0Q586 505 608 464Q625 432 641.0 418.5Q657 405 668 405Q679 405 685.0 413.5Q691 422 691 436Q691 464 666 492Q632 531 600.0 586.5Q568 642 548.0 702.5Q528 763 528 816Q528 853 539.5 869.0Q551 885 570 885Q599 885 628.5 865.5Q658 846 685.0 813.0Q712 780 735.0 739.5Q758 699 775 658Q780 658 783.5 659.0Q787 660 787 667Q770 710 746.5 754.0Q723 798 693.0 834.5Q663 871 626.0 893.0Q589 915 545 915ZM456 384Q496 384 545.0 379.5Q594 375 642.5 363.0Q691 351 732.0 329.0Q773 307 798.0 273.0Q823 239 823 190Q823 146 786.5 123.0Q750 100 694 100Q601 100 524.5 136.5Q448 173 384.5 232.0Q321 291 264 359Q308 372 354.5 378.0Q401 384 456 384Z M822 854Q785 854 767.5 831.5Q750 809 750 778Q750 746 759.0 712.0Q768 678 775 655Q791 599 815.5 535.5Q840 472 869.5 410.5Q899 349 928 300Q951 261 977.5 241.5Q1004 222 1024 222Q1040 222 1049.5 233.5Q1059 245 1059 268Q1059 284 1053.5 306.0Q1048 328 1035 356Q1000 434 951.5 512.0Q903 590 829 658Q817 686 809.0 718.0Q801 750 801 770Q801 832 843 832Q875 832 914.0 785.5Q953 739 988 658Q992 658 996.0 659.5Q1000 661 1000 667Q989 694 972.5 726.5Q956 759 934.5 788.0Q913 817 885.0 835.5Q857 854 822 854ZM837 626Q873 589 907.0 540.5Q941 492 970.5 439.5Q1000 387 1020 340Q1027 325 1031.5 307.0Q1036 289 1036 277Q1036 263 1029 263Q1025 263 1017.0 270.5Q1009 278 996 296Q977 321 954.5 364.0Q932 407 909.0 456.0Q886 505 867.0 550.5Q848 596 837 626Z M1060 855Q1023 855 993.5 831.0Q964 807 964 758Q964 717 982.5 671.0Q1001 625 1031.5 584.5Q1062 544 1099.5 518.5Q1137 493 1175 493Q1194 493 1212.0 504.0Q1230 515 1230 542Q1230 567 1211.0 597.0Q1192 627 1157 653Q1142 664 1119.0 674.0Q1096 684 1073.0 690.5Q1050 697 1035 697Q1030 709 1025.5 729.0Q1021 749 1021 770Q1021 795 1031.0 815.0Q1041 835 1068 835Q1101 835 1129.5 816.0Q1158 797 1180.5 768.0Q1203 739 1219.0 709.0Q1235 679 1244 658Q1256 658 1256 667Q1243 695 1226.5 728.0Q1210 761 1187.5 789.5Q1165 818 1133.5 836.5Q1102 855 1060 855ZM1042 679Q1056 679 1089.0 668.5Q1122 658 1149 635Q1175 612 1189.0 584.5Q1203 557 1203 538Q1203 516 1187 516Q1175 516 1154.0 532.0Q1133 548 1102 586Q1083 610 1066.0 638.0Q1049 666 1042 679Z M1196 885Q1183 885 1180.5 877.5Q1178 870 1178 865Q1208 865 1236.0 844.0Q1264 823 1287.5 789.0Q1311 755 1328.5 715.5Q1346 676 1356.0 639.0Q1366 602 1366 576Q1366 541 1345 541Q1332 541 1316.0 557.0Q1300 573 1286 601Q1275 622 1266.0 643.0Q1257 664 1256 667Q1256 667 1256.0 667.0Q1256 667 1256 667Q1251 667 1247.5 666.0Q1244 665 1244 658Q1250 644 1259.0 623.0Q1268 602 1278 583Q1292 555 1311.0 535.0Q1330 515 1361 515Q1396 515 1407.5 536.0Q1419 557 1419 586Q1419 613 1413 642Q1432 606 1455.5 571.5Q1479 537 1501 517Q1512 506 1522.0 500.0Q1532 494 1544 494Q1556 494 1564.5 500.0Q1573 506 1573 519Q1573 534 1560.0 545.5Q1547 557 1532 557Q1510 557 1507 539Q1487 558 1466.0 588.0Q1445 618 1427.0 651.5Q1409 685 1398 717Q1395 736 1395 754Q1395 780 1402.5 804.0Q1410 828 1436 828Q1478 828 1511.0 782.0Q1544 736 1578 658Q1590 658 1590 667Q1579 694 1564.0 725.5Q1549 757 1529.0 786.0Q1509 815 1483.0 833.0Q1457 851 1423 851Q1396 851 1378.0 836.5Q1360 822 1351.0 800.5Q1342 779 1342 758V733Q1319 782 1288.5 821.5Q1258 861 1229 875Q1220 879 1213.0 882.0Q1206 885 1196 885Z M1795 854Q1772 854 1754.5 841.0Q1737 828 1737 788Q1737 771 1739.5 756.0Q1742 741 1746 724Q1737 739 1721.0 761.0Q1705 783 1685.5 804.0Q1666 825 1645.5 839.0Q1625 853 1607 853Q1581 853 1565.0 829.5Q1549 806 1549 768Q1549 727 1568.0 680.0Q1587 633 1620.0 590.0Q1653 547 1696.0 520.0Q1739 493 1786 493Q1809 493 1830.0 500.5Q1851 508 1867 525Q1874 532 1874 541Q1874 547 1869.0 551.0Q1864 555 1856 553Q1845 518 1809 518Q1792 518 1770 529Q1743 543 1712.5 573.5Q1682 604 1655.5 642.5Q1629 681 1612.0 720.0Q1595 759 1595 791Q1595 824 1620 824Q1642 824 1665.5 803.0Q1689 782 1710.5 750.5Q1732 719 1750.0 688.0Q1768 657 1778 638Q1793 611 1806.0 593.0Q1819 575 1843 575Q1854 575 1865.0 578.0Q1876 581 1888 579Q1858 609 1835.5 650.0Q1813 691 1801.0 730.5Q1789 770 1789 797Q1789 827 1809 827Q1825 827 1843.5 809.0Q1862 791 1879.5 763.5Q1897 736 1912.0 707.5Q1927 679 1936 658Q1941 658 1944.5 659.0Q1948 660 1948 667Q1947 671 1944.5 675.5Q1942 680 1937 691Q1929 707 1915.0 734.0Q1901 761 1882.0 788.5Q1863 816 1841.0 835.0Q1819 854 1795 854Z M1840 859Q1876 786 1909.0 714.5Q1942 643 1977 578Q1997 542 2011.0 527.5Q2025 513 2048 513Q2056 513 2065.0 515.5Q2074 518 2083 518Q2089 518 2092 517Q2078 525 2055.5 556.5Q2033 588 2010.0 629.0Q1987 670 1969 706Q1988 683 2009.0 660.0Q2030 637 2055 616Q2079 595 2112.5 572.5Q2146 550 2178.0 535.0Q2210 520 2229 520Q2236 520 2239 521Q2239 521 2228.0 540.5Q2217 560 2200.5 591.5Q2184 623 2167.0 658.5Q2150 694 2136.5 726.5Q2123 759 2119 781Q2116 794 2116 805Q2116 821 2122.0 826.0Q2128 831 2135 831Q2154 831 2174.0 814.0Q2194 797 2212.5 770.5Q2231 744 2247.0 714.0Q2263 684 2274 658Q2286 658 2286 667Q2275 694 2258.5 726.5Q2242 759 2221.5 788.0Q2201 817 2176.0 836.0Q2151 855 2122 855Q2102 855 2080.5 841.0Q2059 827 2059 789Q2059 778 2061.0 765.5Q2063 753 2068 738Q2076 718 2087.0 695.0Q2098 672 2123 632Q2130 621 2131.5 615.0Q2133 609 2133 605Q2133 593 2122 593Q2113 593 2095.5 603.0Q2078 613 2052 638Q2027 662 1992.5 706.0Q1958 750 1913 836Q1906 849 1897.5 850.0Q1889 851 1874 852Q1864 853 1855.0 853.5Q1846 854 1840 859Z M2503 851Q2469 851 2453.0 828.0Q2437 805 2437 774Q2437 765 2438.0 755.5Q2439 746 2442 736Q2428 758 2409.5 784.5Q2391 811 2367.5 830.5Q2344 850 2315 850Q2302 850 2285.5 844.0Q2269 838 2256.5 821.0Q2244 804 2244 771Q2244 728 2263.0 680.0Q2282 632 2315.0 589.5Q2348 547 2390.0 520.5Q2432 494 2477 494Q2513 494 2545 513Q2560 485 2577.0 450.5Q2594 416 2611.0 382.0Q2628 348 2641.0 319.5Q2654 291 2661 276Q2676 241 2689.5 231.5Q2703 222 2722 222Q2733 222 2746.5 224.5Q2760 227 2773 226Q2768 231 2750.0 259.0Q2732 287 2706.0 331.5Q2680 376 2650.5 429.0Q2621 482 2592.5 537.5Q2564 593 2540.0 644.0Q2516 695 2502.0 734.0Q2488 773 2488 793Q2488 806 2494.0 815.5Q2500 825 2514 825Q2533 825 2553.0 806.0Q2573 787 2591.5 758.5Q2610 730 2624.5 702.5Q2639 675 2646 658Q2658 658 2658 667Q2649 688 2634.0 719.0Q2619 750 2599.0 780.0Q2579 810 2554.5 830.5Q2530 851 2503 851ZM2322 821Q2336 821 2357.0 805.5Q2378 790 2402 756Q2430 716 2466.0 656.0Q2502 596 2537 529Q2530 523 2522.0 520.0Q2514 517 2500 517Q2477 517 2449.5 536.5Q2422 556 2394.5 587.0Q2367 618 2344.5 654.0Q2322 690 2308.5 723.5Q2295 757 2295 781Q2295 821 2322 821Z M2718 855Q2681 855 2651.5 831.0Q2622 807 2622 758Q2622 717 2640.5 671.0Q2659 625 2689.5 584.5Q2720 544 2757.5 518.5Q2795 493 2833 493Q2852 493 2870.0 504.0Q2888 515 2888 542Q2888 567 2869.0 597.0Q2850 627 2815 653Q2800 664 2777.0 674.0Q2754 684 2731.0 690.5Q2708 697 2693 697Q2688 709 2683.5 729.0Q2679 749 2679 770Q2679 795 2689.0 815.0Q2699 835 2726 835Q2759 835 2787.5 816.0Q2816 797 2838.5 768.0Q2861 739 2877.0 709.0Q2893 679 2902 658Q2914 658 2914 667Q2901 695 2884.5 728.0Q2868 761 2845.5 789.5Q2823 818 2791.5 836.5Q2760 855 2718 855ZM2700 679Q2714 679 2747.0 668.5Q2780 658 2807 635Q2833 612 2847.0 584.5Q2861 557 2861 538Q2861 516 2845 516Q2833 516 2812.0 532.0Q2791 548 2760 586Q2741 610 2724.0 638.0Q2707 666 2700 679Z M2903 655Q2911 638 2924.0 600.5Q2937 563 2951.0 517.0Q2965 471 2972 430Q2975 414 2983.0 406.5Q2991 399 3000 399Q3013 399 3024.0 411.5Q3035 424 3035 447Q3035 475 3018.5 495.0Q3002 515 2978 533Q2988 534 2999.0 534.5Q3010 535 3023 535Q3070 535 3116 529Q3118 535 3118 538Q3118 551 3110.5 571.0Q3103 591 3095 607Q3091 616 3079.0 639.5Q3067 663 3053.0 692.5Q3039 722 3029.5 750.5Q3020 779 3020 799Q3020 825 3040 825Q3059 825 3093.0 780.5Q3127 736 3161 658Q3173 658 3173 667Q3162 694 3145.5 726.0Q3129 758 3109.0 786.5Q3089 815 3066.0 833.5Q3043 852 3018 852Q2999 852 2980.0 836.5Q2961 821 2961 786Q2961 755 2973.0 725.5Q2985 696 3000.0 670.0Q3015 644 3027.0 624.0Q3039 604 3039 592Q3039 574 3016.5 566.0Q2994 558 2958 557Q2940 603 2931.0 625.0Q2922 647 2914 667Q2898 667 2903 655Z M3393 891Q3370 891 3344.5 881.0Q3319 871 3301.5 849.5Q3284 828 3284 796Q3284 757 3310.5 734.0Q3337 711 3380 711Q3421 711 3469.5 733.5Q3518 756 3572 791Q3602 761 3636.0 721.0Q3670 681 3705.0 637.5Q3740 594 3772.5 552.5Q3805 511 3833 477Q3922 369 3995.5 296.5Q4069 224 4125 178Q4064 161 3985.0 148.5Q3906 136 3805 136Q3736 136 3685.5 155.0Q3635 174 3607.5 203.0Q3580 232 3580 263Q3580 291 3597.5 306.0Q3615 321 3628 330Q3640 337 3640 342Q3640 349 3628 349Q3607 349 3588.5 333.0Q3570 317 3558.0 292.5Q3546 268 3546 242Q3546 191 3580.0 155.0Q3614 119 3669.0 100.5Q3724 82 3787 82Q3850 82 3913.0 96.0Q3976 110 4035.0 128.5Q4094 147 4144 163Q4161 150 4184.0 132.5Q4207 115 4235.5 101.5Q4264 88 4296 88Q4323 88 4339.0 101.5Q4355 115 4355 135Q4355 166 4328.5 185.0Q4302 204 4266 204Q4244 204 4217.5 199.5Q4191 195 4161 188Q4134 212 4101.5 250.5Q4069 289 4034.5 334.5Q4000 380 3966.5 424.5Q3933 469 3904 505Q3848 574 3791.0 631.5Q3734 689 3683.0 733.0Q3632 777 3595 807Q3638 831 3693.5 864.5Q3749 898 3810.0 930.5Q3871 963 3931.5 984.5Q3992 1006 4044 1006Q4093 1006 4138.5 997.5Q4184 989 4215.5 966.5Q4247 944 4253 903Q4256 880 4266 880Q4271 880 4275.0 887.5Q4279 895 4277 917Q4276 932 4266.0 956.0Q4256 980 4231.5 1004.5Q4207 1029 4163.0 1046.0Q4119 1063 4049 1063Q3988 1063 3930.5 1043.5Q3873 1024 3820.0 993.5Q3767 963 3721.0 930.0Q3675 897 3638.0 868.5Q3601 840 3575 825Q3522 863 3474.5 877.0Q3427 891 3393 891ZM4268 189Q4291 189 4308.5 178.0Q4326 167 4326 142Q4326 128 4315.0 119.0Q4304 110 4288 110Q4266 110 4238.5 126.5Q4211 143 4176 172Q4203 179 4226.0 184.0Q4249 189 4268 189ZM3418 859Q3453 859 3490.5 841.5Q3528 824 3550 805Q3550 805 3540.0 798.0Q3530 791 3522 787Q3485 764 3455.0 754.5Q3425 745 3405 745Q3368 745 3349.0 762.0Q3330 779 3330 799Q3330 821 3352.0 840.0Q3374 859 3418 859Z M4230 854Q4207 854 4189.5 841.0Q4172 828 4172 788Q4172 771 4174.5 756.0Q4177 741 4181 724Q4172 739 4156.0 761.0Q4140 783 4120.5 804.0Q4101 825 4080.5 839.0Q4060 853 4042 853Q4016 853 4000.0 829.5Q3984 806 3984 768Q3984 727 4003.0 680.0Q4022 633 4055.0 590.0Q4088 547 4131.0 520.0Q4174 493 4221 493Q4244 493 4265.0 500.5Q4286 508 4302 525Q4309 532 4309 541Q4309 547 4304.0 551.0Q4299 555 4291 553Q4280 518 4244 518Q4227 518 4205 529Q4178 543 4147.5 573.5Q4117 604 4090.5 642.5Q4064 681 4047.0 720.0Q4030 759 4030 791Q4030 824 4055 824Q4077 824 4100.5 803.0Q4124 782 4145.5 750.5Q4167 719 4185.0 688.0Q4203 657 4213 638Q4228 611 4241.0 593.0Q4254 575 4278 575Q4289 575 4300.0 578.0Q4311 581 4323 579Q4293 609 4270.5 650.0Q4248 691 4236.0 730.5Q4224 770 4224 797Q4224 827 4244 827Q4260 827 4278.5 809.0Q4297 791 4314.5 763.5Q4332 736 4347.0 707.5Q4362 679 4371 658Q4376 658 4379.5 659.0Q4383 660 4383 667Q4382 671 4379.5 675.5Q4377 680 4372 691Q4364 707 4350.0 734.0Q4336 761 4317.0 788.5Q4298 816 4276.0 835.0Q4254 854 4230 854Z M4372 655Q4380 638 4393.0 600.5Q4406 563 4420.0 517.0Q4434 471 4441 430Q4444 414 4452.0 406.5Q4460 399 4469 399Q4482 399 4493.0 411.5Q4504 424 4504 447Q4504 475 4487.5 495.0Q4471 515 4447 533Q4457 534 4468.0 534.5Q4479 535 4492 535Q4539 535 4585 529Q4587 535 4587 538Q4587 551 4579.5 571.0Q4572 591 4564 607Q4560 616 4548.0 639.5Q4536 663 4522.0 692.5Q4508 722 4498.5 750.5Q4489 779 4489 799Q4489 825 4509 825Q4528 825 4562.0 780.5Q4596 736 4630 658Q4642 658 4642 667Q4631 694 4614.5 726.0Q4598 758 4578.0 786.5Q4558 815 4535.0 833.5Q4512 852 4487 852Q4468 852 4449.0 836.5Q4430 821 4430 786Q4430 755 4442.0 725.5Q4454 696 4469.0 670.0Q4484 644 4496.0 624.0Q4508 604 4508 592Q4508 574 4485.5 566.0Q4463 558 4427 557Q4409 603 4400.0 625.0Q4391 647 4383 667Q4367 667 4372 655Z M4702 855Q4665 855 4635.5 831.0Q4606 807 4606 758Q4606 717 4624.5 671.0Q4643 625 4673.5 584.5Q4704 544 4741.5 518.5Q4779 493 4817 493Q4836 493 4854.0 504.0Q4872 515 4872 542Q4872 567 4853.0 597.0Q4834 627 4799 653Q4784 664 4761.0 674.0Q4738 684 4715.0 690.5Q4692 697 4677 697Q4672 709 4667.5 729.0Q4663 749 4663 770Q4663 795 4673.0 815.0Q4683 835 4710 835Q4743 835 4771.5 816.0Q4800 797 4822.5 768.0Q4845 739 4861.0 709.0Q4877 679 4886 658Q4898 658 4898 667Q4885 695 4868.5 728.0Q4852 761 4829.5 789.5Q4807 818 4775.5 836.5Q4744 855 4702 855ZM4684 679Q4698 679 4731.0 668.5Q4764 658 4791 635Q4817 612 4831.0 584.5Q4845 557 4845 538Q4845 516 4829 516Q4817 516 4796.0 532.0Q4775 548 4744 586Q4725 610 4708.0 638.0Q4691 666 4684 679Z M5093 323Q5080 342 5064.0 371.0Q5048 400 5034.5 427.0Q5021 454 5014 468H5106Q5106 472 5102.5 481.0Q5099 490 5089 494H5002Q4990 521 4974.5 559.0Q4959 597 4944.5 638.0Q4930 679 4920.5 714.5Q4911 750 4911 772Q4911 802 4919.0 816.5Q4927 831 4948 831Q4975 831 5000.0 804.5Q5025 778 5047.5 738.0Q5070 698 5087 658Q5099 658 5099 667Q5088 694 5072.0 726.0Q5056 758 5035.5 787.5Q5015 817 4989.5 835.5Q4964 854 4933 854Q4891 854 4876.0 830.5Q4861 807 4861 770Q4861 743 4871.0 704.5Q4881 666 4895.5 625.0Q4910 584 4924.0 548.5Q4938 513 4946 494H4882Q4882 486 4889.0 477.0Q4896 468 4904 468H4957Q4965 452 4975.5 428.0Q4986 404 5004 375Q5019 351 5042.5 337.0Q5066 323 5093 323Z M5108 855Q5067 855 5041.5 829.5Q5016 804 5016 776Q5016 753 5027.5 733.5Q5039 714 5058 714L5059 712Q5081 672 5101.5 630.5Q5122 589 5147 542Q5168 503 5192.5 478.0Q5217 453 5250 453Q5258 453 5272.0 456.5Q5286 460 5286 471Q5286 479 5277 479Q5270 479 5261.5 475.0Q5253 471 5248 471Q5229 471 5216.0 493.0Q5203 515 5203 540Q5203 567 5212.0 588.5Q5221 610 5233.0 630.0Q5245 650 5254.0 670.5Q5263 691 5263 715Q5263 763 5244.5 792.5Q5226 822 5196 837H5197Q5250 837 5284.5 787.5Q5319 738 5353 658Q5365 658 5365 667Q5346 712 5323.0 755.0Q5300 798 5269.0 826.0Q5238 854 5193 854Q5174 854 5158 850Q5135 855 5108 855ZM5093 749Q5093 773 5104.0 795.0Q5115 817 5144 828Q5170 813 5184.5 781.5Q5199 750 5199 716Q5199 688 5193.0 659.0Q5187 630 5180.5 602.0Q5174 574 5174 552Q5174 545 5174.5 539.5Q5175 534 5176 529Q5158 556 5139.5 592.0Q5121 628 5104.0 661.0Q5087 694 5073 715Q5093 718 5093 749ZM5060 799Q5060 815 5071.0 827.0Q5082 839 5104 839Q5114 839 5123 837Q5102 824 5089.5 804.0Q5077 784 5077 758Q5068 768 5064.0 778.5Q5060 789 5060 799Z M5528 858Q5500 855 5482.0 836.5Q5464 818 5456.0 793.0Q5448 768 5448 747Q5448 707 5466.0 682.5Q5484 658 5499 657Q5515 658 5538.0 649.5Q5561 641 5578 626Q5607 603 5607 579Q5607 554 5578 554Q5562 554 5537.5 565.0Q5513 576 5481 603Q5441 637 5398 694Q5392 707 5384.0 732.5Q5376 758 5370.5 785.0Q5365 812 5365 831Q5365 846 5370 851H5307Q5296 851 5296 842Q5296 839 5297.0 837.0Q5298 835 5299 829Q5313 777 5332.5 737.0Q5352 697 5365 667Q5356 670 5355.0 665.5Q5354 661 5354 658Q5361 642 5377.5 606.5Q5394 571 5416.5 524.5Q5439 478 5465.0 427.0Q5491 376 5517 329Q5543 281 5559.5 261.0Q5576 241 5600 241Q5609 241 5621.5 244.0Q5634 247 5644 245Q5622 264 5589.0 314.5Q5556 365 5519.0 432.0Q5482 499 5448 569Q5438 589 5429.0 611.0Q5420 633 5412 655Q5433 629 5460.0 601.0Q5487 573 5516.5 549.5Q5546 526 5575 515Q5608 503 5630 503Q5653 503 5663.5 514.0Q5674 525 5674 542Q5674 561 5659.0 587.5Q5644 614 5618 633Q5596 648 5572.0 659.0Q5548 670 5515 673Q5509 687 5506.5 701.5Q5504 716 5504 730Q5504 769 5522.0 798.5Q5540 828 5569 828Q5583 828 5599.5 820.0Q5616 812 5634 793Q5654 773 5674.0 737.5Q5694 702 5714 658Q5726 658 5726 667Q5690 754 5656.0 796.0Q5622 838 5590.5 849.5Q5559 861 5528 858Z M5742 851Q5705 851 5690.0 829.5Q5675 808 5675 780Q5675 765 5678.5 749.5Q5682 734 5687 721L5754 550Q5757 542 5757 536Q5757 526 5752.0 518.5Q5747 511 5745 508L5800 506Q5815 505 5821.5 509.5Q5828 514 5828 520Q5828 526 5821 542Q5811 566 5794.0 602.0Q5777 638 5760.5 676.0Q5744 714 5732.5 747.0Q5721 780 5721 798Q5721 811 5727.5 820.0Q5734 829 5750 829Q5771 829 5791.5 812.5Q5812 796 5830.0 770.0Q5848 744 5863.5 714.0Q5879 684 5890 658Q5902 658 5902 667Q5892 692 5876.0 724.0Q5860 756 5839.5 784.5Q5819 813 5794.5 832.0Q5770 851 5742 851ZM5831 444Q5818 444 5808.5 434.0Q5799 424 5799 410Q5799 393 5813.0 379.5Q5827 366 5844 366Q5858 366 5868.0 375.0Q5878 384 5878 398Q5878 416 5864.0 430.0Q5850 444 5831 444Z"/></svg>