<svg xmlns="http://www.w3.org/2000/svg" viewBox="0 0 24 24" fill="#A4A8AF"><path d="M11.1 7.6h1.8v3.5h3.5v1.8h-3.5v3.5h-1.8v-3.5H7.6v-1.8h3.5V7.6z"/><path d="M11.35 1.2h1.3v2.2h2.2v1.3h-2.2v2.2h-1.3V4.7h-2.2V3.4h2.2V1.2z"/><path d="M11.35 17.1h1.3v2.2h2.2v1.3h-2.2v2.2h-1.3v-2.2h-2.2v-1.3h2.2v-2.2z"/><path d="M3.4 9.15h1.3v2.2h2.2v1.3H4.7v2.2H3.4v-2.2H1.2v-1.3h2.2v-2.2z"/><path d="M19.3 9.15h1.3v2.2h2.2v1.3h-2.2v2.2h-1.3v-2.2h-2.2v-1.3h2.2v-2.2z"/><path d="M18.6 2.1h1.1v1.7h1.7v1.1h-1.7v1.7h-1.1V4.9h-1.7V3.8h1.7V2.1z"/><path d="M4.3 2.1h1.1v1.7h1.7v1.1H5.4v1.7H4.3V4.9H2.6V3.8h1.7V2.1z"/><path d="M18.6 17.4h1.1v1.7h1.7v1.1h-1.7v1.7h-1.1v-1.7h-1.7v-1.1h1.7v-1.7z"/><path d="M4.3 17.4h1.1v1.7h1.7v1.1H5.4v1.7H4.3v-1.7H2.6v-1.1h1.7v-1.7z"/></svg>
